<?xml version="1.0" encoding="UTF-8" standalone="no"?>
<!DOCTYPE svg PUBLIC "-//W3C//DTD SVG 1.1//EN"
 "http://www.w3.org/Graphics/SVG/1.1/DTD/svg11.dtd">
<!-- Generated by graphviz version 14.1.5 (20260411.2331)
 -->
<!-- Title: packages_Galaga Pages: 1 -->
<svg width="1607pt" height="476pt"
 viewBox="0.00 0.00 1607.00 476.00" xmlns="http://www.w3.org/2000/svg" xmlns:xlink="http://www.w3.org/1999/xlink">
<g id="graph0" class="graph" transform="scale(1 1) rotate(0) translate(4 472)">
<title>packages_Galaga</title>
<polygon fill="white" stroke="none" points="-4,4 -4,-472 1603.28,-472 1603.28,4 -4,4"/>
<!-- engine -->
<g id="node1" class="node">
<title>engine</title>
<polygon fill="none" stroke="black" points="790.28,-396 736.28,-396 736.28,-360 790.28,-360 790.28,-396"/>
<text xml:space="preserve" text-anchor="start" x="745.28" y="-373.5" font-family="Times New Roman,serif" font-size="14.00">engine</text>
</g>
<!-- engine.assets -->
<g id="node2" class="node">
<title>engine.assets</title>
<polygon fill="none" stroke="black" points="403.91,-396 316.66,-396 316.66,-360 403.91,-360 403.91,-396"/>
<text xml:space="preserve" text-anchor="start" x="324.66" y="-373.5" font-family="Times New Roman,serif" font-size="14.00">engine.assets</text>
</g>
<!-- engine.audio -->
<g id="node3" class="node">
<title>engine.audio</title>
<polygon fill="none" stroke="black" points="309.16,-324 223.41,-324 223.41,-288 309.16,-288 309.16,-324"/>
<text xml:space="preserve" text-anchor="start" x="231.41" y="-301.5" font-family="Times New Roman,serif" font-size="14.00">engine.audio</text>
</g>
<!-- engine.audio&#45;&gt;engine -->
<g id="edge1" class="edge">
<title>engine.audio&#45;&gt;engine</title>
<path fill="none" stroke="black" d="M309.52,-321.84C312.46,-322.64 315.41,-323.37 318.28,-324 466.42,-356.7 647.06,-370.33 724.75,-374.98"/>
<polygon fill="black" stroke="black" points="734.66,-375.55 724.42,-379.46 730.89,-375.33 724.68,-374.97 724.68,-374.97 724.68,-374.97 730.89,-375.33 724.94,-370.48 734.66,-375.55"/>
</g>
<!-- engine.audio&#45;&gt;engine.assets -->
<g id="edge2" class="edge">
<title>engine.audio&#45;&gt;engine.assets</title>
<path fill="none" stroke="black" d="M289.52,-324.3C301.15,-332.97 315.43,-343.6 328.1,-353.04"/>
<polygon fill="black" stroke="black" points="336.01,-358.93 325.3,-356.56 332.98,-356.67 327.99,-352.95 327.99,-352.95 327.99,-352.95 332.98,-356.67 330.68,-349.34 336.01,-358.93"/>
</g>
<!-- engine.input -->
<g id="node4" class="node">
<title>engine.input</title>
<polygon fill="none" stroke="black" points="1397.03,-468 1313.53,-468 1313.53,-432 1397.03,-432 1397.03,-468"/>
<text xml:space="preserve" text-anchor="start" x="1321.53" y="-445.5" font-family="Times New Roman,serif" font-size="14.00">engine.input</text>
</g>
<!-- engine.scene -->
<g id="node5" class="node">
<title>engine.scene</title>
<polygon fill="none" stroke="black" points="1398.16,-396 1312.41,-396 1312.41,-360 1398.16,-360 1398.16,-396"/>
<text xml:space="preserve" text-anchor="start" x="1320.41" y="-373.5" font-family="Times New Roman,serif" font-size="14.00">engine.scene</text>
</g>
<!-- engine.scene&#45;&gt;engine.input -->
<g id="edge69" class="edge">
<title>engine.scene&#45;&gt;engine.input</title>
<path fill="none" stroke="black" stroke-dasharray="5,2" d="M1355.28,-396.3C1355.28,-403.68 1355.28,-412.48 1355.28,-420.75"/>
<polygon fill="black" stroke="black" points="1355.28,-430.68 1350.78,-420.68 1355.28,-426.9 1355.28,-420.68 1355.28,-420.68 1355.28,-420.68 1355.28,-426.9 1359.78,-420.68 1355.28,-430.68"/>
</g>
<!-- entities -->
<g id="node6" class="node">
<title>entities</title>
<polygon fill="none" stroke="black" points="861.78,-36 806.78,-36 806.78,0 861.78,0 861.78,-36"/>
<text xml:space="preserve" text-anchor="start" x="814.78" y="-13.5" font-family="Times New Roman,serif" font-size="14.00">entities</text>
</g>
<!-- entities.bullet -->
<g id="node7" class="node">
<title>entities.bullet</title>
<polygon fill="none" stroke="black" points="129.03,-324 39.53,-324 39.53,-288 129.03,-288 129.03,-324"/>
<text xml:space="preserve" text-anchor="start" x="47.53" y="-301.5" font-family="Times New Roman,serif" font-size="14.00">entities.bullet</text>
</g>
<!-- entities.bullet&#45;&gt;engine -->
<g id="edge3" class="edge">
<title>entities.bullet&#45;&gt;engine</title>
<path fill="none" stroke="black" d="M129.49,-320.99C134.12,-322.13 138.77,-323.17 143.28,-324 360.71,-364.22 626.79,-374.01 724.74,-376.31"/>
<polygon fill="black" stroke="black" points="734.61,-376.53 724.52,-380.81 730.83,-376.45 724.62,-376.31 724.62,-376.31 724.62,-376.31 730.83,-376.45 724.72,-371.81 734.61,-376.53"/>
</g>
<!-- entities.bullet&#45;&gt;engine.assets -->
<g id="edge4" class="edge">
<title>entities.bullet&#45;&gt;engine.assets</title>
<path fill="none" stroke="black" d="M129.33,-320.18C134.03,-321.5 138.75,-322.79 143.28,-324 198.39,-338.66 261.78,-353.97 305.76,-364.34"/>
<polygon fill="black" stroke="black" points="315.32,-366.59 304.56,-368.68 311.64,-365.72 305.59,-364.3 305.59,-364.3 305.59,-364.3 311.64,-365.72 306.62,-359.92 315.32,-366.59"/>
</g>
<!-- entities.captured_animation -->
<g id="node8" class="node">
<title>entities.captured_animation</title>
<polygon fill="none" stroke="black" points="687.66,-324 520.91,-324 520.91,-288 687.66,-288 687.66,-324"/>
<text xml:space="preserve" text-anchor="start" x="528.91" y="-301.5" font-family="Times New Roman,serif" font-size="14.00">entities.captured_animation</text>
</g>
<!-- entities.captured_animation&#45;&gt;engine -->
<g id="edge5" class="edge">
<title>entities.captured_animation&#45;&gt;engine</title>
<path fill="none" stroke="black" d="M643.99,-324.48C669.1,-335.54 701.35,-349.74 725.98,-360.58"/>
<polygon fill="black" stroke="black" points="734.92,-364.51 723.95,-364.6 731.46,-362.99 725.77,-360.48 725.77,-360.48 725.77,-360.48 731.46,-362.99 727.58,-356.37 734.92,-364.51"/>
</g>
<!-- entities.captured_animation&#45;&gt;engine.assets -->
<g id="edge6" class="edge">
<title>entities.captured_animation&#45;&gt;engine.assets</title>
<path fill="none" stroke="black" d="M543.34,-324.48C503.86,-335.81 452.88,-350.43 414.75,-361.37"/>
<polygon fill="black" stroke="black" points="405.53,-364.02 413.9,-356.94 409.17,-362.98 415.14,-361.26 415.14,-361.26 415.14,-361.26 409.17,-362.98 416.38,-365.59 405.53,-364.02"/>
</g>
<!-- entities.enemy -->
<g id="node9" class="node">
<title>entities.enemy</title>
<polygon fill="none" stroke="black" points="317.03,-180 221.53,-180 221.53,-144 317.03,-144 317.03,-180"/>
<text xml:space="preserve" text-anchor="start" x="229.53" y="-157.5" font-family="Times New Roman,serif" font-size="14.00">entities.enemy</text>
</g>
<!-- entities.enemy&#45;&gt;engine -->
<g id="edge7" class="edge">
<title>entities.enemy&#45;&gt;engine</title>
<path fill="none" stroke="black" d="M253.54,-180.28C226.16,-212.45 176.16,-282.02 214.28,-324 231.49,-342.95 603.05,-367.22 724.94,-374.7"/>
<polygon fill="black" stroke="black" points="734.71,-375.3 724.46,-379.18 730.94,-375.07 724.73,-374.69 724.73,-374.69 724.73,-374.69 730.94,-375.07 725.01,-370.2 734.71,-375.3"/>
</g>
<!-- entities.enemy&#45;&gt;engine.assets -->
<g id="edge8" class="edge">
<title>entities.enemy&#45;&gt;engine.assets</title>
<path fill="none" stroke="black" d="M221.04,-167.05C158.24,-173.39 53.53,-187.93 28.28,-216 -3.91,-251.79 -11.02,-287.44 20.28,-324 56.3,-366.07 218.52,-375 305.22,-376.73"/>
<polygon fill="black" stroke="black" points="315.21,-376.9 305.13,-381.23 311.42,-376.84 305.21,-376.73 305.21,-376.73 305.21,-376.73 311.42,-376.84 305.28,-372.23 315.21,-376.9"/>
</g>
<!-- entities.enemy&#45;&gt;entities.bullet -->
<g id="edge9" class="edge">
<title>entities.enemy&#45;&gt;entities.bullet</title>
<path fill="none" stroke="black" d="M236.93,-180.41C219.85,-190.11 198.85,-202.86 181.28,-216 166.96,-226.72 133.88,-257.61 110.34,-279.99"/>
<polygon fill="black" stroke="black" points="103.34,-286.67 107.47,-276.51 106.08,-284.06 110.58,-279.76 110.58,-279.76 110.58,-279.76 106.08,-284.06 113.68,-283.02 103.34,-286.67"/>
</g>
<!-- game -->
<g id="node14" class="node">
<title>game</title>
<polygon fill="none" stroke="black" points="355.28,-252 301.28,-252 301.28,-216 355.28,-216 355.28,-252"/>
<text xml:space="preserve" text-anchor="start" x="313.28" y="-229.5" font-family="Times New Roman,serif" font-size="14.00">game</text>
</g>
<!-- entities.enemy&#45;&gt;game -->
<g id="edge10" class="edge">
<title>entities.enemy&#45;&gt;game</title>
<path fill="none" stroke="black" d="M283.87,-180.3C290.8,-188.53 299.22,-198.52 306.86,-207.58"/>
<polygon fill="black" stroke="black" points="313.08,-214.96 303.19,-210.22 310.64,-212.07 306.63,-207.32 306.63,-207.32 306.63,-207.32 310.64,-212.07 310.08,-204.42 313.08,-214.96"/>
</g>
<!-- entities.explosion -->
<g id="node10" class="node">
<title>entities.explosion</title>
<polygon fill="none" stroke="black" points="678.91,-252 567.66,-252 567.66,-216 678.91,-216 678.91,-252"/>
<text xml:space="preserve" text-anchor="start" x="575.66" y="-229.5" font-family="Times New Roman,serif" font-size="14.00">entities.explosion</text>
</g>
<!-- entities.explosion&#45;&gt;engine -->
<g id="edge11" class="edge">
<title>entities.explosion&#45;&gt;engine</title>
<path fill="none" stroke="black" d="M651.14,-252.35C665.44,-261.94 682.65,-274.61 696.28,-288 715.66,-307.05 733.95,-332 746.51,-350.63"/>
<polygon fill="black" stroke="black" points="751.86,-358.72 742.59,-352.86 749.77,-355.57 746.34,-350.38 746.34,-350.38 746.34,-350.38 749.77,-355.57 750.1,-347.9 751.86,-358.72"/>
</g>
<!-- entities.explosion&#45;&gt;engine.assets -->
<g id="edge12" class="edge">
<title>entities.explosion&#45;&gt;engine.assets</title>
<path fill="none" stroke="black" d="M567.27,-250.64C539.76,-259.55 506.72,-272.12 479.28,-288 457.71,-300.49 456.08,-308.86 436.28,-324 423.22,-333.99 408.48,-344.45 395.48,-353.41"/>
<polygon fill="black" stroke="black" points="387.37,-358.96 393.08,-349.6 390.49,-356.82 395.62,-353.31 395.62,-353.31 395.62,-353.31 390.49,-356.82 398.17,-357.02 387.37,-358.96"/>
</g>
<!-- entities.player -->
<g id="node11" class="node">
<title>entities.player</title>
<polygon fill="none" stroke="black" points="129.53,-252 37.03,-252 37.03,-216 129.53,-216 129.53,-252"/>
<text xml:space="preserve" text-anchor="start" x="45.03" y="-229.5" font-family="Times New Roman,serif" font-size="14.00">entities.player</text>
</g>
<!-- entities.player&#45;&gt;engine -->
<g id="edge13" class="edge">
<title>entities.player&#45;&gt;engine</title>
<path fill="none" stroke="black" d="M101.14,-252.36C126.71,-277.06 171.76,-319.82 181.28,-324 230.94,-345.82 603.77,-368.17 725.19,-374.94"/>
<polygon fill="black" stroke="black" points="734.92,-375.48 724.68,-379.42 731.14,-375.27 724.93,-374.92 724.93,-374.92 724.93,-374.92 731.14,-375.27 725.18,-370.43 734.92,-375.48"/>
</g>
<!-- entities.player&#45;&gt;engine.assets -->
<g id="edge14" class="edge">
<title>entities.player&#45;&gt;engine.assets</title>
<path fill="none" stroke="black" d="M60.66,-252.18C38.62,-270.97 11.03,-301.42 30.28,-324 64.96,-364.69 220.71,-374.26 305.26,-376.43"/>
<polygon fill="black" stroke="black" points="315.23,-376.66 305.13,-380.93 311.45,-376.57 305.23,-376.43 305.23,-376.43 305.23,-376.43 311.45,-376.57 305.33,-371.93 315.23,-376.66"/>
</g>
<!-- entities.player&#45;&gt;engine.audio -->
<g id="edge15" class="edge">
<title>entities.player&#45;&gt;engine.audio</title>
<path fill="none" stroke="black" d="M128.99,-252.48C154.41,-262.21 186.18,-274.36 212.76,-284.53"/>
<polygon fill="black" stroke="black" points="221.91,-288.03 210.96,-288.66 218.37,-286.67 212.57,-284.45 212.57,-284.45 212.57,-284.45 218.37,-286.67 214.17,-280.25 221.91,-288.03"/>
</g>
<!-- entities.player&#45;&gt;engine.input -->
<g id="edge16" class="edge">
<title>entities.player&#45;&gt;engine.input</title>
<path fill="none" stroke="black" d="M52.65,-252.43C40.17,-261.32 27.1,-273.36 20.28,-288 13.53,-302.51 10.44,-311.38 20.28,-324 101.17,-427.69 177.21,-376.59 307.28,-396 502.3,-425.11 1116.83,-442.88 1301.98,-447.68"/>
<polygon fill="black" stroke="black" points="1311.82,-447.93 1301.7,-452.18 1308.04,-447.84 1301.82,-447.68 1301.82,-447.68 1301.82,-447.68 1308.04,-447.84 1301.94,-443.18 1311.82,-447.93"/>
</g>
<!-- entities.player&#45;&gt;entities.bullet -->
<g id="edge17" class="edge">
<title>entities.player&#45;&gt;entities.bullet</title>
<path fill="none" stroke="black" d="M83.53,-252.3C83.63,-259.68 83.76,-268.48 83.88,-276.75"/>
<polygon fill="black" stroke="black" points="84.02,-286.68 79.38,-276.74 83.97,-282.9 83.88,-276.68 83.88,-276.68 83.88,-276.68 83.97,-282.9 88.38,-276.61 84.02,-286.68"/>
</g>
<!-- entities.rescuing_ship -->
<g id="node12" class="node">
<title>entities.rescuing_ship</title>
<polygon fill="none" stroke="black" points="877.16,-324 743.41,-324 743.41,-288 877.16,-288 877.16,-324"/>
<text xml:space="preserve" text-anchor="start" x="751.41" y="-301.5" font-family="Times New Roman,serif" font-size="14.00">entities.rescuing_ship</text>
</g>
<!-- entities.rescuing_ship&#45;&gt;engine -->
<g id="edge18" class="edge">
<title>entities.rescuing_ship&#45;&gt;engine</title>
<path fill="none" stroke="black" d="M798.66,-324.3C793.31,-332.27 786.85,-341.9 780.92,-350.74"/>
<polygon fill="black" stroke="black" points="775.44,-358.88 777.28,-348.07 777.55,-355.74 781.02,-350.58 781.02,-350.58 781.02,-350.58 777.55,-355.74 784.76,-353.09 775.44,-358.88"/>
</g>
<!-- entities.rescuing_ship&#45;&gt;engine.assets -->
<g id="edge19" class="edge">
<title>entities.rescuing_ship&#45;&gt;engine.assets</title>
<path fill="none" stroke="black" d="M742.91,-317.48C653.6,-331.37 497.7,-355.62 415.17,-368.46"/>
<polygon fill="black" stroke="black" points="405.47,-369.97 414.66,-363.99 409.2,-369.39 415.35,-368.43 415.35,-368.43 415.35,-368.43 409.2,-369.39 416.04,-372.88 405.47,-369.97"/>
</g>
<!-- entities.tractor_beam -->
<g id="node13" class="node">
<title>entities.tractor_beam</title>
<polygon fill="none" stroke="black" points="941.66,-180 810.91,-180 810.91,-144 941.66,-144 941.66,-180"/>
<text xml:space="preserve" text-anchor="start" x="818.91" y="-157.5" font-family="Times New Roman,serif" font-size="14.00">entities.tractor_beam</text>
</g>
<!-- game.capture -->
<g id="node15" class="node">
<title>game.capture</title>
<polygon fill="none" stroke="black" points="1049.03,-180 959.53,-180 959.53,-144 1049.03,-144 1049.03,-180"/>
<text xml:space="preserve" text-anchor="start" x="967.53" y="-157.5" font-family="Times New Roman,serif" font-size="14.00">game.capture</text>
</g>
<!-- game.difficulty -->
<g id="node16" class="node">
<title>game.difficulty</title>
<polygon fill="none" stroke="black" points="427.28,-324 327.28,-324 327.28,-288 427.28,-288 427.28,-324"/>
<text xml:space="preserve" text-anchor="start" x="335.28" y="-301.5" font-family="Times New Roman,serif" font-size="14.00">game.difficulty</text>
</g>
<!-- game.dive -->
<g id="node17" class="node">
<title>game.dive</title>
<polygon fill="none" stroke="black" points="952.78,-36 879.78,-36 879.78,0 952.78,0 952.78,-36"/>
<text xml:space="preserve" text-anchor="start" x="887.78" y="-13.5" font-family="Times New Roman,serif" font-size="14.00">game.dive</text>
</g>
<!-- game.formation -->
<g id="node18" class="node">
<title>game.formation</title>
<polygon fill="none" stroke="black" points="1074.16,-36 970.41,-36 970.41,0 1074.16,0 1074.16,-36"/>
<text xml:space="preserve" text-anchor="start" x="978.41" y="-13.5" font-family="Times New Roman,serif" font-size="14.00">game.formation</text>
</g>
<!-- game.hud -->
<g id="node19" class="node">
<title>game.hud</title>
<polygon fill="none" stroke="black" points="953.28,-252 883.28,-252 883.28,-216 953.28,-216 953.28,-252"/>
<text xml:space="preserve" text-anchor="start" x="891.28" y="-229.5" font-family="Times New Roman,serif" font-size="14.00">game.hud</text>
</g>
<!-- game.hud&#45;&gt;engine -->
<g id="edge20" class="edge">
<title>game.hud&#45;&gt;engine</title>
<path fill="none" stroke="black" d="M924.01,-252.19C929.31,-271.54 934.31,-303.02 919.28,-324 892.64,-361.19 838.39,-372.6 801.43,-375.92"/>
<polygon fill="black" stroke="black" points="791.78,-376.63 801.43,-371.41 795.55,-376.35 801.75,-375.9 801.75,-375.9 801.75,-375.9 795.55,-376.35 802.08,-380.39 791.78,-376.63"/>
</g>
<!-- game.hud&#45;&gt;engine.assets -->
<g id="edge21" class="edge">
<title>game.hud&#45;&gt;engine.assets</title>
<path fill="none" stroke="black" d="M882.98,-236.92C796.85,-242.03 578.15,-257.69 512.28,-288 490.55,-298 492.19,-310.74 472.28,-324 454.3,-335.98 433.18,-346.71 414.16,-355.34"/>
<polygon fill="black" stroke="black" points="405.25,-359.29 412.57,-351.12 408.71,-357.76 414.4,-355.24 414.4,-355.24 414.4,-355.24 408.71,-357.76 416.22,-359.35 405.25,-359.29"/>
</g>
<!-- game.scoring -->
<g id="node20" class="node">
<title>game.scoring</title>
<polygon fill="none" stroke="black" points="1251.03,-324 1161.53,-324 1161.53,-288 1251.03,-288 1251.03,-324"/>
<text xml:space="preserve" text-anchor="start" x="1169.53" y="-301.5" font-family="Times New Roman,serif" font-size="14.00">game.scoring</text>
</g>
<!-- game.hud&#45;&gt;game.scoring -->
<g id="edge22" class="edge">
<title>game.hud&#45;&gt;game.scoring</title>
<path fill="none" stroke="black" d="M953.6,-243.58C1002.7,-255.52 1092.12,-277.25 1150.35,-291.41"/>
<polygon fill="black" stroke="black" points="1160.02,-293.76 1149.24,-295.77 1156.34,-292.86 1150.3,-291.39 1150.3,-291.39 1150.3,-291.39 1156.34,-292.86 1151.36,-287.02 1160.02,-293.76"/>
</g>
<!-- game.wave -->
<g id="node21" class="node">
<title>game.wave</title>
<polygon fill="none" stroke="black" points="641.41,-180 563.16,-180 563.16,-144 641.41,-144 641.41,-180"/>
<text xml:space="preserve" text-anchor="start" x="571.16" y="-157.5" font-family="Times New Roman,serif" font-size="14.00">game.wave</text>
</g>
<!-- scenes -->
<g id="node22" class="node">
<title>scenes</title>
<polygon fill="none" stroke="black" points="1146.28,-36 1092.28,-36 1092.28,0 1146.28,0 1146.28,-36"/>
<text xml:space="preserve" text-anchor="start" x="1101.66" y="-13.5" font-family="Times New Roman,serif" font-size="14.00">scenes</text>
</g>
<!-- scenes.bonus -->
<g id="node23" class="node">
<title>scenes.bonus</title>
<polygon fill="none" stroke="black" points="788.91,-36 701.66,-36 701.66,0 788.91,0 788.91,-36"/>
<text xml:space="preserve" text-anchor="start" x="709.66" y="-13.5" font-family="Times New Roman,serif" font-size="14.00">scenes.bonus</text>
</g>
<!-- scenes.bonus&#45;&gt;engine -->
<g id="edge23" class="edge">
<title>scenes.bonus&#45;&gt;engine</title>
<path fill="none" stroke="black" d="M789.3,-33.52C871.71,-61.14 1042.41,-120.57 1058.28,-144 1081.81,-178.74 1005.64,-292.35 961.28,-324 913.12,-358.36 844,-370.45 801.46,-374.7"/>
<polygon fill="black" stroke="black" points="791.68,-375.57 801.24,-370.2 795.45,-375.23 801.64,-374.68 801.64,-374.68 801.64,-374.68 795.45,-375.23 802.04,-379.16 791.68,-375.57"/>
</g>
<!-- scenes.bonus&#45;&gt;engine.audio -->
<g id="edge24" class="edge">
<title>scenes.bonus&#45;&gt;engine.audio</title>
<path fill="none" stroke="black" d="M701.48,-29.66C667.31,-38.76 619.14,-53.32 579.28,-72 525.36,-97.27 512.32,-106.23 466.28,-144 432.01,-172.11 427.59,-183.66 397.28,-216 382.44,-231.84 381.4,-238.65 364.28,-252 349.38,-263.62 331.57,-274.1 315.25,-282.6"/>
<polygon fill="black" stroke="black" points="306.41,-287.09 313.29,-278.55 309.78,-285.38 315.33,-282.56 315.33,-282.56 315.33,-282.56 309.78,-285.38 317.36,-286.58 306.41,-287.09"/>
</g>
<!-- scenes.bonus&#45;&gt;engine.input -->
<g id="edge25" class="edge">
<title>scenes.bonus&#45;&gt;engine.input</title>
<path fill="none" stroke="black" d="M789.32,-34.02C792.33,-34.77 795.34,-35.44 798.28,-36 1045.51,-82.78 1117.3,-19.02 1363.28,-72 1472.87,-95.6 1599.28,-48.9 1599.28,-161 1599.28,-161 1599.28,-161 1599.28,-307 1599.28,-394.76 1479.91,-429.22 1408.16,-442.01"/>
<polygon fill="black" stroke="black" points="1398.71,-443.61 1407.81,-437.51 1402.43,-442.98 1408.57,-441.94 1408.57,-441.94 1408.57,-441.94 1402.43,-442.98 1409.32,-446.38 1398.71,-443.61"/>
</g>
<!-- scenes.bonus&#45;&gt;engine.scene -->
<g id="edge26" class="edge">
<title>scenes.bonus&#45;&gt;engine.scene</title>
<path fill="none" stroke="black" d="M789.32,-34C792.33,-34.75 795.34,-35.43 798.28,-36 1021.84,-79.08 1093.52,0.69 1309.28,-72 1431.85,-113.29 1470.21,-163.24 1504.28,-288 1508.5,-303.43 1513.51,-310.93 1504.28,-324 1482.95,-354.23 1442.78,-367.32 1409.53,-372.94"/>
<polygon fill="black" stroke="black" points="1399.76,-374.39 1408.98,-368.47 1403.5,-373.84 1409.65,-372.92 1409.65,-372.92 1409.65,-372.92 1403.5,-373.84 1410.31,-377.37 1399.76,-374.39"/>
</g>
<!-- scenes.bonus&#45;&gt;entities.enemy -->
<g id="edge27" class="edge">
<title>scenes.bonus&#45;&gt;entities.enemy</title>
<path fill="none" stroke="black" d="M701.31,-20.18C607.82,-23.39 392.79,-34.73 331.28,-72 307.83,-86.21 291,-113.05 280.84,-133.56"/>
<polygon fill="black" stroke="black" points="276.66,-142.5 276.82,-131.53 278.26,-139.07 280.9,-133.44 280.9,-133.44 280.9,-133.44 278.26,-139.07 284.97,-135.35 276.66,-142.5"/>
</g>
<!-- scenes.bonus&#45;&gt;entities.explosion -->
<g id="edge28" class="edge">
<title>scenes.bonus&#45;&gt;entities.explosion</title>
<path fill="none" stroke="black" d="M701.41,-33.51C655.31,-51.39 585.29,-86.65 554.28,-144 546.67,-158.07 547.21,-165.65 554.28,-180 560.01,-191.63 569.66,-201.42 579.95,-209.3"/>
<polygon fill="black" stroke="black" points="588.09,-215.03 577.32,-212.95 584.99,-212.85 579.91,-209.27 579.91,-209.27 579.91,-209.27 584.99,-212.85 582.5,-205.59 588.09,-215.03"/>
</g>
<!-- scenes.bonus&#45;&gt;entities.player -->
<g id="edge29" class="edge">
<title>scenes.bonus&#45;&gt;entities.player</title>
<path fill="none" stroke="black" d="M701.27,-20.84C575.89,-26.39 223.09,-44.33 179.28,-72 130.66,-102.71 103.42,-167.74 91.21,-205.08"/>
<polygon fill="black" stroke="black" points="88.26,-214.54 86.94,-203.65 89.38,-210.93 91.23,-204.99 91.23,-204.99 91.23,-204.99 89.38,-210.93 95.53,-206.33 88.26,-214.54"/>
</g>
<!-- scenes.bonus&#45;&gt;game -->
<g id="edge30" class="edge">
<title>scenes.bonus&#45;&gt;game</title>
<path fill="none" stroke="black" d="M701.27,-19.26C612.73,-20.7 417.45,-28.83 369.28,-72 331.78,-105.61 326.36,-168.27 326.71,-204.72"/>
<polygon fill="black" stroke="black" points="326.96,-214.34 322.2,-204.46 326.86,-210.56 326.7,-204.34 326.7,-204.34 326.7,-204.34 326.86,-210.56 331.19,-204.23 326.96,-214.34"/>
</g>
<!-- scenes.bonus&#45;&gt;game.difficulty -->
<g id="edge31" class="edge">
<title>scenes.bonus&#45;&gt;game.difficulty</title>
<path fill="none" stroke="black" d="M701.21,-20.76C602.11,-25.27 364.7,-39.26 292.28,-72 248.69,-91.71 231.74,-100.3 212.28,-144 184.86,-205.57 264.9,-255.8 322.9,-282.97"/>
<polygon fill="black" stroke="black" points="331.97,-287.11 321.01,-287.05 328.53,-285.54 322.87,-282.96 322.87,-282.96 322.87,-282.96 328.53,-285.54 324.74,-278.86 331.97,-287.11"/>
</g>
<!-- scenes.bonus&#45;&gt;game.scoring -->
<g id="edge32" class="edge">
<title>scenes.bonus&#45;&gt;game.scoring</title>
<path fill="none" stroke="black" d="M789.35,-33.87C792.35,-34.66 795.35,-35.38 798.28,-36 1014.29,-81.9 1164.72,42.31 1283.28,-144 1295.3,-162.89 1279.52,-239.44 1272.28,-252 1265.81,-263.23 1255.97,-273.01 1245.84,-281"/>
<polygon fill="black" stroke="black" points="1237.93,-286.84 1243.31,-277.28 1240.97,-284.6 1245.98,-280.91 1245.98,-280.91 1245.98,-280.91 1240.97,-284.6 1248.65,-284.53 1237.93,-286.84"/>
</g>
<!-- scenes.play -->
<g id="node25" class="node">
<title>scenes.play</title>
<polygon fill="none" stroke="black" points="784.41,-108 706.16,-108 706.16,-72 784.41,-72 784.41,-108"/>
<text xml:space="preserve" text-anchor="start" x="714.16" y="-85.5" font-family="Times New Roman,serif" font-size="14.00">scenes.play</text>
</g>
<!-- scenes.bonus&#45;&gt;scenes.play -->
<g id="edge33" class="edge">
<title>scenes.bonus&#45;&gt;scenes.play</title>
<path fill="none" stroke="black" d="M739.37,-36.3C738.6,-43.68 738.36,-52.48 738.64,-60.75"/>
<polygon fill="black" stroke="black" points="739.31,-70.68 734.15,-61 739.05,-66.91 738.64,-60.7 738.64,-60.7 738.64,-60.7 739.05,-66.91 743.13,-60.4 739.31,-70.68"/>
</g>
<!-- scenes.transitions -->
<g id="node27" class="node">
<title>scenes.transitions</title>
<polygon fill="none" stroke="black" points="1494.91,-324 1383.66,-324 1383.66,-288 1494.91,-288 1494.91,-324"/>
<text xml:space="preserve" text-anchor="start" x="1391.66" y="-301.5" font-family="Times New Roman,serif" font-size="14.00">scenes.transitions</text>
</g>
<!-- scenes.bonus&#45;&gt;scenes.transitions -->
<g id="edge34" class="edge">
<title>scenes.bonus&#45;&gt;scenes.transitions</title>
<path fill="none" stroke="black" d="M789.33,-33.97C792.34,-34.73 795.34,-35.42 798.28,-36 996.87,-75.17 1063.4,0.76 1252.28,-72 1350.17,-109.7 1392.97,-121.88 1439.28,-216 1448.5,-234.74 1447.99,-258.5 1445.44,-276.76"/>
<polygon fill="black" stroke="black" points="1443.82,-286.39 1441.05,-275.78 1444.45,-282.66 1445.48,-276.53 1445.48,-276.53 1445.48,-276.53 1444.45,-282.66 1449.92,-277.28 1443.82,-286.39"/>
</g>
<!-- scenes.gameover -->
<g id="node24" class="node">
<title>scenes.gameover</title>
<polygon fill="none" stroke="black" points="1252.78,-180 1143.78,-180 1143.78,-144 1252.78,-144 1252.78,-180"/>
<text xml:space="preserve" text-anchor="start" x="1151.78" y="-157.5" font-family="Times New Roman,serif" font-size="14.00">scenes.gameover</text>
</g>
<!-- scenes.gameover&#45;&gt;engine -->
<g id="edge35" class="edge">
<title>scenes.gameover&#45;&gt;engine</title>
<path fill="none" stroke="black" d="M1143.32,-170.12C1053.17,-182.06 882.94,-205.81 874.28,-216 843.01,-252.8 912.83,-283.65 886.28,-324 867.61,-352.38 830.18,-365.63 801.5,-371.77"/>
<polygon fill="black" stroke="black" points="791.79,-373.64 800.77,-367.33 795.51,-372.92 801.62,-371.75 801.62,-371.75 801.62,-371.75 795.51,-372.92 802.46,-376.17 791.79,-373.64"/>
</g>
<!-- scenes.gameover&#45;&gt;engine.audio -->
<g id="edge36" class="edge">
<title>scenes.gameover&#45;&gt;engine.audio</title>
<path fill="none" stroke="black" d="M1143.5,-170.28C1117.68,-173.55 1086.43,-177.28 1058.28,-180 836.52,-201.43 774.89,-163.85 558.28,-216 518.39,-225.6 512.3,-239.31 473.28,-252 409.18,-272.85 388.35,-269.39 320.04,-287.66"/>
<polygon fill="black" stroke="black" points="310.78,-290.2 319.24,-283.22 314.43,-289.2 320.43,-287.56 320.43,-287.56 320.43,-287.56 314.43,-289.2 321.61,-291.9 310.78,-290.2"/>
</g>
<!-- scenes.gameover&#45;&gt;engine.input -->
<g id="edge37" class="edge">
<title>scenes.gameover&#45;&gt;engine.input</title>
<path fill="none" stroke="black" d="M1207.36,-180.18C1219.86,-204.08 1242.81,-248.84 1260.28,-288 1281.33,-335.18 1275.08,-352.71 1303.28,-396 1309.84,-406.07 1318.52,-415.83 1326.9,-424.18"/>
<polygon fill="black" stroke="black" points="1333.89,-430.86 1323.55,-427.2 1331.15,-428.25 1326.66,-423.95 1326.66,-423.95 1326.66,-423.95 1331.15,-428.25 1329.77,-420.7 1333.89,-430.86"/>
</g>
<!-- scenes.gameover&#45;&gt;engine.scene -->
<g id="edge38" class="edge">
<title>scenes.gameover&#45;&gt;engine.scene</title>
<path fill="none" stroke="black" d="M1219.62,-180.42C1230.93,-190.23 1244.63,-203.06 1255.28,-216 1290.95,-259.32 1323.47,-316.38 1341.21,-349.64"/>
<polygon fill="black" stroke="black" points="1345.87,-358.48 1337.23,-351.73 1344.11,-355.13 1341.21,-349.63 1341.21,-349.63 1341.21,-349.63 1344.11,-355.13 1345.19,-347.53 1345.87,-358.48"/>
</g>
<!-- scenes.gameover&#45;&gt;game.scoring -->
<g id="edge39" class="edge">
<title>scenes.gameover&#45;&gt;game.scoring</title>
<path fill="none" stroke="black" d="M1199.26,-180.41C1200.62,-204.5 1203.08,-248.25 1204.7,-276.97"/>
<polygon fill="black" stroke="black" points="1205.25,-286.67 1200.19,-276.94 1205.04,-282.9 1204.69,-276.69 1204.69,-276.69 1204.69,-276.69 1205.04,-282.9 1209.18,-276.44 1205.25,-286.67"/>
</g>
<!-- scenes.title -->
<g id="node26" class="node">
<title>scenes.title</title>
<polygon fill="none" stroke="black" points="1133.28,-252 1057.28,-252 1057.28,-216 1133.28,-216 1133.28,-252"/>
<text xml:space="preserve" text-anchor="start" x="1065.28" y="-229.5" font-family="Times New Roman,serif" font-size="14.00">scenes.title</text>
</g>
<!-- scenes.gameover&#45;&gt;scenes.title -->
<g id="edge40" class="edge">
<title>scenes.gameover&#45;&gt;scenes.title</title>
<path fill="none" stroke="black" d="M1172.56,-180.48C1159.55,-189.32 1143.6,-200.16 1129.57,-209.7"/>
<polygon fill="black" stroke="black" points="1121.69,-215.05 1127.43,-205.71 1124.81,-212.93 1129.96,-209.43 1129.96,-209.43 1129.96,-209.43 1124.81,-212.93 1132.49,-213.16 1121.69,-215.05"/>
</g>
<!-- scenes.play&#45;&gt;engine -->
<g id="edge41" class="edge">
<title>scenes.play&#45;&gt;engine</title>
<path fill="none" stroke="black" d="M751.61,-108.32C759.98,-128.73 776.74,-162.1 802.28,-180 861.97,-221.83 916.75,-159.08 962.28,-216 983.02,-241.92 944.94,-317.52 938.28,-324 901.31,-359.96 840.79,-371.62 801.49,-375.35"/>
<polygon fill="black" stroke="black" points="791.73,-376.13 801.34,-370.84 795.5,-375.83 801.7,-375.33 801.7,-375.33 801.7,-375.33 795.5,-375.83 802.06,-379.81 791.73,-376.13"/>
</g>
<!-- scenes.play&#45;&gt;engine.audio -->
<g id="edge42" class="edge">
<title>scenes.play&#45;&gt;engine.audio</title>
<path fill="none" stroke="black" d="M705.92,-94.03C658.56,-99.01 577.74,-111.83 516.28,-144 453,-177.12 457.77,-214.02 397.28,-252 383.71,-260.52 349.89,-274.14 320.02,-285.44"/>
<polygon fill="black" stroke="black" points="310.8,-288.9 318.58,-281.17 314.34,-287.57 320.16,-285.39 320.16,-285.39 320.16,-285.39 314.34,-287.57 321.74,-289.6 310.8,-288.9"/>
</g>
<!-- scenes.play&#45;&gt;engine.input -->
<g id="edge43" class="edge">
<title>scenes.play&#45;&gt;engine.input</title>
<path fill="none" stroke="black" d="M784.72,-92.29C917.91,-96.91 1345.68,-113.96 1399.28,-144 1480.07,-189.28 1540.6,-238.8 1504.28,-324 1484.47,-370.48 1436.92,-405.33 1400.82,-426.26"/>
<polygon fill="black" stroke="black" points="1392.5,-430.94 1399.01,-422.12 1395.8,-429.09 1401.22,-426.04 1401.22,-426.04 1401.22,-426.04 1395.8,-429.09 1403.43,-429.96 1392.5,-430.94"/>
</g>
<!-- scenes.play&#45;&gt;engine.scene -->
<g id="edge44" class="edge">
<title>scenes.play&#45;&gt;engine.scene</title>
<path fill="none" stroke="black" d="M784.89,-92.43C902.61,-97.02 1244.59,-112.92 1283.28,-144 1346.08,-194.44 1355.3,-298.59 1355.9,-348.77"/>
<polygon fill="black" stroke="black" points="1355.9,-358.52 1351.4,-348.52 1355.9,-354.74 1355.9,-348.52 1355.9,-348.52 1355.9,-348.52 1355.9,-354.74 1360.4,-348.52 1355.9,-358.52"/>
</g>
<!-- scenes.play&#45;&gt;entities.captured_animation -->
<g id="edge45" class="edge">
<title>scenes.play&#45;&gt;entities.captured_animation</title>
<path fill="none" stroke="black" d="M742.96,-108.31C737.96,-139.91 723.63,-207.75 688.28,-252 678.67,-264.03 665.54,-274.12 652.51,-282.16"/>
<polygon fill="black" stroke="black" points="644.15,-287.03 650.53,-278.11 647.42,-285.13 652.79,-281.99 652.79,-281.99 652.79,-281.99 647.42,-285.13 655.06,-285.88 644.15,-287.03"/>
</g>
<!-- scenes.play&#45;&gt;entities.enemy -->
<g id="edge46" class="edge">
<title>scenes.play&#45;&gt;entities.enemy</title>
<path fill="none" stroke="black" d="M705.92,-96.79C622.38,-109.07 426.94,-137.81 328.36,-152.31"/>
<polygon fill="black" stroke="black" points="318.61,-153.75 327.85,-147.84 322.35,-153.2 328.51,-152.29 328.51,-152.29 328.51,-152.29 322.35,-153.2 329.16,-156.74 318.61,-153.75"/>
</g>
<!-- scenes.play&#45;&gt;entities.explosion -->
<g id="edge47" class="edge">
<title>scenes.play&#45;&gt;entities.explosion</title>
<path fill="none" stroke="black" d="M727.45,-108.21C717.18,-118.36 704.18,-131.61 693.28,-144 675.27,-164.49 656.21,-188.93 642.53,-207.01"/>
<polygon fill="black" stroke="black" points="636.64,-214.85 639.05,-204.15 638.91,-211.83 642.65,-206.86 642.65,-206.86 642.65,-206.86 638.91,-211.83 646.24,-209.56 636.64,-214.85"/>
</g>
<!-- scenes.play&#45;&gt;entities.player -->
<g id="edge48" class="edge">
<title>scenes.play&#45;&gt;entities.player</title>
<path fill="none" stroke="black" d="M705.67,-92.38C598.19,-96.52 303.08,-110.7 212.28,-144 173.15,-158.35 134.66,-187.4 110.05,-208.41"/>
<polygon fill="black" stroke="black" points="102.56,-214.95 107.14,-204.98 105.41,-212.46 110.1,-208.37 110.1,-208.37 110.1,-208.37 105.41,-212.46 113.05,-211.76 102.56,-214.95"/>
</g>
<!-- scenes.play&#45;&gt;entities.rescuing_ship -->
<g id="edge49" class="edge">
<title>scenes.play&#45;&gt;entities.rescuing_ship</title>
<path fill="none" stroke="black" d="M749.7,-108.47C754.32,-126.48 761.91,-155.31 769.28,-180 779.36,-213.74 792.17,-252.18 800.76,-277.42"/>
<polygon fill="black" stroke="black" points="803.89,-286.55 796.39,-278.54 802.66,-282.97 800.65,-277.09 800.65,-277.09 800.65,-277.09 802.66,-282.97 804.91,-275.63 803.89,-286.55"/>
</g>
<!-- scenes.play&#45;&gt;entities.tractor_beam -->
<g id="edge50" class="edge">
<title>scenes.play&#45;&gt;entities.tractor_beam</title>
<path fill="none" stroke="black" d="M778,-108.48C795.01,-117.57 815.99,-128.78 834.19,-138.51"/>
<polygon fill="black" stroke="black" points="842.9,-143.17 831.96,-142.42 839.57,-141.38 834.08,-138.45 834.08,-138.45 834.08,-138.45 839.57,-141.38 836.21,-134.48 842.9,-143.17"/>
</g>
<!-- scenes.play&#45;&gt;game -->
<g id="edge51" class="edge">
<title>scenes.play&#45;&gt;game</title>
<path fill="none" stroke="black" d="M705.7,-92.1C646.63,-95.01 532.98,-105.61 445.28,-144 410.04,-159.43 375.73,-187.54 353.48,-208.06"/>
<polygon fill="black" stroke="black" points="346.45,-214.67 350.65,-204.54 349.21,-212.08 353.74,-207.82 353.74,-207.82 353.74,-207.82 349.21,-212.08 356.82,-211.1 346.45,-214.67"/>
</g>
<!-- scenes.play&#45;&gt;game.capture -->
<g id="edge52" class="edge">
<title>scenes.play&#45;&gt;game.capture</title>
<path fill="none" stroke="black" d="M784.75,-100.56C823.96,-110.2 886.05,-125.84 948.77,-143.64"/>
<polygon fill="black" stroke="black" points="958.08,-146.3 947.23,-147.88 954.45,-145.26 948.47,-143.55 948.47,-143.55 948.47,-143.55 954.45,-145.26 949.7,-139.22 958.08,-146.3"/>
</g>
<!-- scenes.play&#45;&gt;game.difficulty -->
<g id="edge53" class="edge">
<title>scenes.play&#45;&gt;game.difficulty</title>
<path fill="none" stroke="black" d="M705.94,-94.43C664.98,-99.61 600.47,-112.47 554.28,-144 504.73,-177.83 518.55,-212.62 473.28,-252 459.6,-263.9 442.81,-274.28 427.12,-282.62"/>
<polygon fill="black" stroke="black" points="418.62,-287 425.46,-278.42 421.98,-285.27 427.51,-282.42 427.51,-282.42 427.51,-282.42 421.98,-285.27 429.57,-286.43 418.62,-287"/>
</g>
<!-- scenes.play&#45;&gt;game.scoring -->
<g id="edge54" class="edge">
<title>scenes.play&#45;&gt;game.scoring</title>
<path fill="none" stroke="black" d="M784.63,-92.06C899.85,-95.57 1230.39,-108.67 1262.28,-144 1297.29,-182.78 1257.38,-244.64 1229.24,-279.3"/>
<polygon fill="black" stroke="black" points="1223.17,-286.57 1226.13,-276.01 1225.59,-283.66 1229.58,-278.89 1229.58,-278.89 1229.58,-278.89 1225.59,-283.66 1233.03,-281.78 1223.17,-286.57"/>
</g>
<!-- scenes.play&#45;&gt;game.wave -->
<g id="edge55" class="edge">
<title>scenes.play&#45;&gt;game.wave</title>
<path fill="none" stroke="black" d="M709.57,-108.48C690.74,-117.7 667.46,-129.1 647.4,-138.92"/>
<polygon fill="black" stroke="black" points="638.64,-143.2 645.64,-134.77 642.03,-141.54 647.62,-138.81 647.62,-138.81 647.62,-138.81 642.03,-141.54 649.6,-142.85 638.64,-143.2"/>
</g>
<!-- scenes.play&#45;&gt;scenes.bonus -->
<g id="edge56" class="edge">
<title>scenes.play&#45;&gt;scenes.bonus</title>
<path fill="none" stroke="black" d="M751.18,-71.9C751.95,-64.55 752.2,-55.76 751.93,-47.47"/>
<polygon fill="black" stroke="black" points="751.28,-37.52 756.42,-47.2 751.52,-41.29 751.93,-47.5 751.93,-47.5 751.93,-47.5 751.52,-41.29 747.44,-47.79 751.28,-37.52"/>
</g>
<!-- scenes.play&#45;&gt;scenes.gameover -->
<g id="edge57" class="edge">
<title>scenes.play&#45;&gt;scenes.gameover</title>
<path fill="none" stroke="black" d="M784.73,-96.97C848.97,-106.71 980.2,-126.67 1091.28,-144 1104.63,-146.08 1118.9,-148.33 1132.54,-150.5"/>
<polygon fill="black" stroke="black" points="1142.1,-152.01 1131.52,-154.89 1138.37,-151.42 1132.23,-150.45 1132.23,-150.45 1132.23,-150.45 1138.37,-151.42 1132.93,-146 1142.1,-152.01"/>
</g>
<!-- scenes.play&#45;&gt;scenes.transitions -->
<g id="edge58" class="edge">
<title>scenes.play&#45;&gt;scenes.transitions</title>
<path fill="none" stroke="black" d="M784.52,-92.02C913.95,-95.7 1321.81,-109.92 1369.28,-144 1412.73,-175.2 1429.51,-239.29 1435.76,-276.51"/>
<polygon fill="black" stroke="black" points="1437.26,-286.37 1431.31,-277.16 1436.69,-282.63 1435.76,-276.48 1435.76,-276.48 1435.76,-276.48 1436.69,-282.63 1440.2,-275.81 1437.26,-286.37"/>
</g>
<!-- scenes.title&#45;&gt;engine -->
<g id="edge59" class="edge">
<title>scenes.title&#45;&gt;engine</title>
<path fill="none" stroke="black" d="M1088.07,-252.46C1078.64,-273 1060.09,-306.51 1033.28,-324 995.54,-348.62 866.77,-365.74 801.65,-373.04"/>
<polygon fill="black" stroke="black" points="791.86,-374.12 801.31,-368.55 795.62,-373.7 801.8,-373.02 801.8,-373.02 801.8,-373.02 795.62,-373.7 802.29,-377.5 791.86,-374.12"/>
</g>
<!-- scenes.title&#45;&gt;engine.audio -->
<g id="edge60" class="edge">
<title>scenes.title&#45;&gt;engine.audio</title>
<path fill="none" stroke="black" d="M1056.95,-240.64C1030.42,-244.35 994.27,-249.07 962.28,-252 680.44,-277.86 601.99,-236.1 320.44,-287.9"/>
<polygon fill="black" stroke="black" points="310.67,-289.73 319.68,-283.47 314.39,-289.03 320.5,-287.89 320.5,-287.89 320.5,-287.89 314.39,-289.03 321.33,-292.31 310.67,-289.73"/>
</g>
<!-- scenes.title&#45;&gt;engine.input -->
<g id="edge61" class="edge">
<title>scenes.title&#45;&gt;engine.input</title>
<path fill="none" stroke="black" d="M1095.46,-252.21C1096.52,-271.58 1100.88,-303.08 1117.28,-324 1164.25,-383.92 1247.99,-418.23 1302.58,-435.24"/>
<polygon fill="black" stroke="black" points="1311.92,-438.06 1301.05,-439.48 1308.3,-436.97 1302.35,-435.17 1302.35,-435.17 1302.35,-435.17 1308.3,-436.97 1303.65,-430.86 1311.92,-438.06"/>
</g>
<!-- scenes.title&#45;&gt;engine.scene -->
<g id="edge62" class="edge">
<title>scenes.title&#45;&gt;engine.scene</title>
<path fill="none" stroke="black" d="M1101.71,-252.18C1110.19,-272.44 1127.05,-305.67 1152.28,-324 1196.06,-355.81 1257.4,-368.55 1301.17,-373.64"/>
<polygon fill="black" stroke="black" points="1310.96,-374.67 1300.54,-378.1 1307.2,-374.27 1301.02,-373.62 1301.02,-373.62 1301.02,-373.62 1307.2,-374.27 1301.49,-369.15 1310.96,-374.67"/>
</g>
<!-- scenes.title&#45;&gt;game.difficulty -->
<g id="edge63" class="edge">
<title>scenes.title&#45;&gt;game.difficulty</title>
<path fill="none" stroke="black" d="M1056.92,-240.39C1030.39,-244 994.23,-248.68 962.28,-252 762.72,-272.73 711.87,-267.46 512.28,-288 488.15,-290.48 461.65,-293.71 438.57,-296.68"/>
<polygon fill="black" stroke="black" points="428.75,-297.96 438.09,-292.21 432.5,-297.47 438.67,-296.67 438.67,-296.67 438.67,-296.67 432.5,-297.47 439.25,-301.13 428.75,-297.96"/>
</g>
<!-- scenes.title&#45;&gt;game.scoring -->
<g id="edge64" class="edge">
<title>scenes.title&#45;&gt;game.scoring</title>
<path fill="none" stroke="black" d="M1123,-252.48C1137.15,-261.4 1154.54,-272.37 1169.76,-281.97"/>
<polygon fill="black" stroke="black" points="1177.88,-287.09 1167.02,-285.56 1174.68,-285.07 1169.42,-281.76 1169.42,-281.76 1169.42,-281.76 1174.68,-285.07 1171.82,-277.95 1177.88,-287.09"/>
</g>
<!-- scenes.title&#45;&gt;scenes.play -->
<g id="edge65" class="edge">
<title>scenes.title&#45;&gt;scenes.play</title>
<path fill="none" stroke="black" d="M1093.1,-215.61C1089.55,-195.15 1080.54,-161.72 1058.28,-144 1018.52,-112.35 873.59,-98.79 795.67,-93.69"/>
<polygon fill="black" stroke="black" points="785.9,-93.07 796.16,-89.21 789.67,-93.31 795.88,-93.7 795.88,-93.7 795.88,-93.7 789.67,-93.31 795.59,-98.19 785.9,-93.07"/>
</g>
<!-- scenes.title&#45;&gt;scenes.transitions -->
<g id="edge66" class="edge">
<title>scenes.title&#45;&gt;scenes.transitions</title>
<path fill="none" stroke="black" d="M1133.74,-242.83C1191.52,-254.58 1301.52,-276.97 1372.57,-291.42"/>
<polygon fill="black" stroke="black" points="1381.99,-293.34 1371.3,-295.76 1378.29,-292.59 1372.2,-291.35 1372.2,-291.35 1372.2,-291.35 1378.29,-292.59 1373.09,-286.94 1381.99,-293.34"/>
</g>
<!-- scenes.transitions&#45;&gt;engine.input -->
<g id="edge67" class="edge">
<title>scenes.transitions&#45;&gt;engine.input</title>
<path fill="none" stroke="black" d="M1435.4,-324.38C1430.7,-343.08 1421.6,-373.19 1407.28,-396 1401.01,-405.99 1392.58,-415.61 1384.33,-423.85"/>
<polygon fill="black" stroke="black" points="1377.12,-430.74 1381.24,-420.58 1379.85,-428.13 1384.35,-423.84 1384.35,-423.84 1384.35,-423.84 1379.85,-428.13 1387.46,-427.09 1377.12,-430.74"/>
</g>
<!-- scenes.transitions&#45;&gt;engine.scene -->
<g id="edge68" class="edge">
<title>scenes.transitions&#45;&gt;engine.scene</title>
<path fill="none" stroke="black" d="M1418.52,-324.3C1408.32,-332.8 1395.86,-343.19 1384.7,-352.49"/>
<polygon fill="black" stroke="black" points="1377.03,-358.87 1381.83,-349.01 1379.94,-356.45 1384.72,-352.47 1384.72,-352.47 1384.72,-352.47 1379.94,-356.45 1387.6,-355.93 1377.03,-358.87"/>
</g>
</g>
</svg>
